<svg width="18" height="14" viewBox="0 0 18 14" fill="none" xmlns="http://www.w3.org/2000/svg">
<path fill-rule="evenodd" clip-rule="evenodd" d="M1.92653 7.00014C2.95629 9.91395 5.73556 12.0002 9.00002 12.0002C12.2645 12.0002 15.0437 9.91397 16.0735 7.00019C15.0437 4.08637 12.2645 2.00016 9 2.00016C5.73556 2.00016 2.95631 4.08635 1.92653 7.00014ZM0.253137 6.75042C1.42098 3.03218 4.89425 0.333496 9 0.333496C13.1058 0.333496 16.5791 3.03221 17.7469 6.75049C17.7979 6.91305 17.7979 7.08735 17.7469 7.2499C16.579 10.9681 13.1058 13.6668 9.00002 13.6668C4.89424 13.6668 1.42096 10.9681 0.253135 7.24984C0.202079 7.08728 0.20208 6.91298 0.253137 6.75042ZM8.99963 5.3335C8.07916 5.3335 7.33297 6.07969 7.33297 7.00016C7.33297 7.92064 8.07916 8.66683 8.99963 8.66683C9.92011 8.66683 10.6663 7.92064 10.6663 7.00016C10.6663 6.07969 9.92011 5.3335 8.99963 5.3335ZM5.6663 7.00016C5.6663 5.15921 7.15868 3.66683 8.99963 3.66683C10.8406 3.66683 12.333 5.15921 12.333 7.00016C12.333 8.84111 10.8406 10.3335 8.99963 10.3335C7.15868 10.3335 5.6663 8.84111 5.6663 7.00016Z" fill="#94A3B8"/>
</svg>
