<svg width="94" height="46" viewBox="0 0 94 46" fill="none" xmlns="http://www.w3.org/2000/svg">
<g clip-path="url(#clip0_4831_5190)">
<path d="M21.3145 31.6977C20.5494 31.6977 19.7843 31.4791 19.1285 31.1512C18.3633 30.8233 17.7082 30.1674 17.1616 29.6209C16.6151 29.0744 16.0686 28.4186 15.6314 27.5442C15.1942 26.7791 14.8663 25.9047 14.6477 24.9209H14.5384C13.0082 24.9209 11.5872 24.593 10.2756 24.0465C8.96398 23.3907 7.76165 22.6256 6.77793 21.5326C5.79421 20.4395 5.02909 19.1279 4.37328 17.707C3.71746 16.286 3.38956 14.5372 3.28026 12.7884C3.17095 11.0395 3.38956 9.4 3.93607 7.76047C4.48258 6.23023 5.13839 4.8093 6.12212 3.71628C7.10584 2.51395 8.19886 1.63954 9.40119 0.983721C10.6035 0.327907 12.0244 0 13.5547 0C15.0849 0 16.5058 0.327907 17.8175 0.983721C19.1291 1.63954 20.3314 2.51395 21.3151 3.60698C22.2989 4.7 23.1733 5.90233 23.7198 7.43256C24.2663 8.96279 24.7035 10.493 24.7035 12.2419C24.7035 13.7721 24.5942 15.193 24.2663 16.5047C23.9384 17.8163 23.5012 18.9093 22.8454 20.0023C22.1896 21.0953 21.5337 21.9698 20.6593 22.7349C19.7849 23.5 18.8012 24.0465 17.7082 24.4837C18.1454 24.7023 18.6919 24.9209 19.1291 25.0302C19.5663 25.1395 20.1128 25.2488 20.55 25.3581C21.058 25.4674 21.643 25.4674 22.1896 25.4674C22.7361 25.4674 92.9082 26.2326 93.6733 26.2326C93.8919 26.2326 94.0012 26.3419 94.1105 26.4512C94.2198 26.5605 94.2198 26.6698 94.2198 26.8884V30.2767C94.2198 30.6047 94.1105 30.9326 93.8919 31.1512C93.6733 31.3698 93.4547 31.5884 93.1268 31.807C90.5035 33.5558 23.5005 31.6977 22.954 31.6977C22.4075 31.6977 21.6661 31.6977 21.3145 31.6977ZM9.9477 13.2256C10.2756 15.4116 10.6035 17.2698 11.0407 18.6907C11.4779 20.1116 11.9151 21.2047 12.4616 22.0791C12.7896 22.6256 13.1175 22.8442 13.5547 22.7349C13.8826 22.6256 14.1012 22.2977 14.1012 21.5326C14.1012 21.0954 14.2105 20.7674 14.3198 20.7674C14.5384 20.7674 14.6477 20.8767 14.8663 21.2047C15.4128 22.1884 15.85 22.7349 16.2872 23.0628C16.7244 23.2814 17.0523 23.2814 17.3803 23.0628C17.7082 22.7349 17.9268 22.2977 18.1454 21.5326C18.364 20.7674 18.4733 19.893 18.4733 18.9093C18.5826 17.9256 18.5826 16.7233 18.4733 15.5209C18.4733 14.2093 18.364 13.007 18.1454 11.6953C17.9268 9.83721 17.5989 8.19767 17.271 6.88605C16.943 5.57442 16.5058 4.4814 16.0686 3.71628C15.6314 2.95116 15.0849 2.29535 14.5384 1.96744C13.9919 1.63954 13.3361 1.53023 12.6803 1.63953C12.0244 1.74884 11.3686 2.07674 10.9314 2.51395C10.2756 2.95116 9.9477 3.60698 9.72909 4.5907C9.51049 5.46512 9.40119 6.66744 9.40119 8.08837C9.51049 9.5093 9.61979 11.2581 9.9477 13.2256Z" fill="#4338CA"/>
<path d="M33.9199 26.2326C32.6972 26.2326 31.5857 26.0083 30.5853 25.672C29.5849 25.2236 28.5845 24.6631 27.8064 23.8784C27.0283 23.0936 26.3614 22.3089 25.9168 21.2999C25.4721 20.291 25.2498 19.2821 25.2498 18.161C25.2498 17.1521 25.361 16.2552 25.6944 15.3584C26.0279 14.4615 26.4725 13.5647 27.0283 12.78C27.5841 11.8831 28.3622 11.0984 29.1402 10.3137C29.9183 9.52892 30.8076 8.74419 31.5857 8.07156C31.9191 7.84735 32.0303 7.51103 31.9191 7.39893C31.808 7.17472 31.5857 7.06261 31.141 7.06261C30.4741 7.06261 29.696 7.28682 28.8068 7.62314C27.9175 7.95945 27.0283 8.29577 26.0279 8.63208C25.8056 8.74419 25.5833 8.74419 25.361 8.63208C25.2498 8.51998 25.1387 8.29577 25.1387 8.07156V1.00894C25.1387 0.784735 25.2498 0.67263 25.4721 0.560525C25.6944 0.44842 26.0279 0.336315 26.3614 0.22421C26.6948 0.112105 27.1395 0.112105 27.4729 0.112105C27.9175 0.112105 28.251 0 28.5845 0C29.3626 0 30.1406 0.112105 30.8076 0.336315C31.4745 0.560525 32.1414 0.896839 32.586 1.34526C33.1418 1.79368 33.4753 2.3542 33.8088 2.91473C34.1422 3.58736 34.2534 4.25999 34.2534 5.04472C34.2534 5.82946 34.1422 6.50209 33.8088 7.06261C33.5864 7.62314 33.253 8.18366 32.8084 8.74419C32.4749 9.30471 32.0303 9.75313 31.4745 10.3137C31.0299 10.7621 30.5853 11.3226 30.1406 11.8831C29.8072 12.4437 29.4737 13.0042 29.1402 13.5647C28.9179 14.1252 28.6956 14.91 28.6956 15.5826C28.6956 16.9278 29.0291 17.9368 29.8072 18.6094C30.5853 19.2821 31.5857 19.7305 32.8084 19.7305C34.4757 19.7305 35.6984 19.0578 36.4765 17.8247C37.2546 16.4794 37.6992 14.5736 37.6992 12.2194V7.95945C37.6992 6.05367 37.588 4.4842 37.3657 3.36315C37.1434 2.12999 36.9211 1.12105 36.4765 0.336315V0.22421H44.8131V0.336315C44.7019 1.12105 44.3685 2.12999 44.1462 3.36315C43.9238 4.5963 43.8127 6.16577 43.8127 7.95945V14.5736C43.8127 16.1431 43.5904 17.7126 43.0346 19.1699C42.59 20.6273 41.8119 21.7484 40.9227 22.8694C40.0334 23.8784 38.9219 24.7752 37.8103 25.3357C36.5876 25.8962 35.3649 26.2326 33.9199 26.2326Z" fill="#4338CA"/>
<path d="M45.3613 25.8277C45.7985 24.9533 46.3449 23.7188 46.4542 22.5164C46.6728 21.3141 46.7821 19.6746 46.7821 17.8164V7.97922C46.7821 6.12108 46.6728 4.59084 46.4542 3.27922C46.2356 2.18619 45.9077 1.09317 45.5798 0.328053V0.21875H53.7775V0.328053C53.231 1.09317 52.9031 2.18619 52.7937 3.38852C52.5751 4.59084 52.4658 6.12108 52.4658 7.97922V17.8164C52.4658 19.6746 52.5751 21.3141 52.7937 22.5164C53.0124 23.7188 53.3403 24.7025 53.7775 25.5769L53.9277 25.8277H45.3613Z" fill="#4338CA"/>
<path d="M63.8818 26.2326C62.4876 26.2326 61.2006 25.9019 60.0209 25.2406C58.8411 24.5792 57.7686 23.6975 56.8034 22.5953C55.8382 21.4931 55.1947 20.1704 54.5512 18.6273C54.0149 17.0842 53.6932 15.4309 53.5859 13.6674C53.4787 11.7936 53.6932 10.0301 54.1222 8.37678C54.5512 6.72347 55.1947 5.2906 56.0526 4.07817C56.9106 2.86574 57.8759 1.87375 59.0556 1.10221C60.2354 0.330663 61.5223 0 62.8093 0C63.5601 0 64.2036 -1.06757e-07 64.8471 0.110221C65.4906 0.220442 66.134 0.220441 66.7775 0.330662C67.421 0.440883 68.0645 0.440883 68.708 0.440883C69.3515 0.440883 70.1023 0.330662 70.9603 0.110221C71.282 -1.06757e-07 71.4965 0.220442 71.711 0.551104C72.0327 1.43287 72.14 2.20442 72.14 2.97596C72.14 3.74751 71.9255 4.29861 71.711 4.84972C71.3892 5.40082 71.0675 5.8417 70.5313 6.06215C69.995 6.39281 69.3515 6.50303 68.6008 6.50303C67.85 6.50303 66.992 6.39281 66.2413 6.17237C65.4906 5.95193 64.8471 5.73148 64.0963 5.40082C63.4528 5.07016 62.8093 4.7395 62.1658 4.29861C61.5223 3.85773 60.9861 3.52707 60.3426 3.08618C59.9136 2.86574 59.5919 2.75552 59.1629 2.97596C58.7339 3.1964 58.4121 3.52707 58.0904 4.07817C57.7686 4.62927 57.5541 5.2906 57.3396 6.06215C57.2324 7.16435 57.1251 8.04612 57.1251 8.92789C57.1251 10.5812 57.3396 12.1243 57.7686 13.3367C58.1976 14.6594 58.8411 15.7616 59.5919 16.6433C60.3426 17.5251 61.3078 18.2967 62.3803 18.7375C63.4528 19.1784 64.6326 19.5091 65.8123 19.5091C67.9573 19.5091 69.7805 18.7375 71.1747 17.0842C71.282 16.8638 71.4965 16.8638 71.711 16.974C71.9255 17.0842 72.0327 17.4149 72.0327 17.966C72.0327 19.0682 71.8182 20.1704 71.3893 21.1624C70.9603 22.1544 70.424 23.0362 69.6733 23.8077C68.9225 24.5792 68.0645 25.1304 67.0993 25.5712C66.0268 26.0121 64.9543 26.2326 63.8818 26.2326Z" fill="#4338CA"/>
<path d="M72.7949 26.1234C73.2321 25.249 73.56 24.2653 73.6693 22.9536C73.8879 21.642 73.9972 20.1118 73.9972 18.1443V8.08852C73.9972 6.12108 73.8879 4.59084 73.6693 3.27922C73.56 2.18619 73.2321 1.09317 72.7949 0.328053V0.21875H80.9926C81.9763 0.21875 82.5228 0.983866 82.5228 2.4048C82.5228 3.27921 82.3042 4.04433 81.9763 4.80945C81.6484 5.46526 81.2112 6.12108 80.6647 6.77689C80.1182 7.3234 79.681 7.97921 79.0252 8.41642C78.4786 8.96294 77.9321 9.50945 77.3856 9.94666C76.8391 10.4932 76.5112 10.9304 76.1833 11.5862C75.8554 12.1327 75.6368 12.6792 75.6368 13.335C75.6368 13.8815 75.8554 14.3187 76.1833 14.6467C76.5112 14.9746 76.9484 15.1932 77.3856 15.1932C78.26 15.1932 79.0252 14.756 79.8996 13.8815C80.774 13.0071 81.4298 11.9141 82.0856 10.6025C82.7414 9.29084 83.2879 7.76061 83.7252 6.01177C84.1624 4.37224 84.381 2.7327 84.381 1.09317C84.381 0.546657 84.5996 0.21875 85.0368 0.21875H91.1577C91.4856 0.21875 91.7042 0.328053 91.8135 0.546657C92.0321 0.765262 91.9228 1.20247 91.5949 1.85828C90.6112 3.93503 89.2996 6.01177 87.66 7.86991C86.1298 9.83735 84.2717 11.6955 82.3042 13.5536C81.867 13.9908 81.6484 14.3187 81.7577 14.5374C81.867 14.756 82.1949 14.756 82.7414 14.5374L84.4903 13.8815C85.1461 13.6629 85.8019 13.5536 86.3484 13.7722C87.0042 13.9908 87.4414 14.4281 87.7693 15.0839L89.7368 19.0187C90.8298 21.2048 91.7042 22.9536 92.36 24.0467C93.0159 25.1397 93.4531 25.9048 93.781 26.2327H87.5507C86.6763 26.2327 85.9112 26.0141 85.2554 25.5769C84.7089 25.1397 84.1624 24.3746 83.6159 23.5001C83.1786 22.735 82.8507 21.9699 82.4135 21.0955C81.9763 20.3304 81.5391 19.5653 81.1019 18.9094C80.6647 18.2536 80.2275 17.7071 79.7903 17.2699C79.3531 16.8327 79.0252 16.6141 78.5879 16.6141C78.26 16.6141 78.0414 16.8327 77.8228 17.2699C77.6042 17.7071 77.4949 18.2536 77.4949 18.8001C77.4949 19.6746 77.8228 20.549 78.4786 21.3141C79.1345 22.1885 80.1182 23.1722 81.5391 24.4839C82.0856 25.0304 82.3042 25.3583 82.1949 25.7955C82.0856 26.1234 81.867 26.342 81.3205 26.342L72.7949 26.1234Z" fill="#4338CA"/>
</g>
<path d="M43.8125 43.5783C43.9699 43.281 44.0836 42.9137 44.1535 42.4765C44.2322 42.0305 44.2716 41.4665 44.2716 40.7845V37.2431C44.2716 36.5611 44.2322 36.0014 44.1535 35.5642C44.0836 35.1183 43.9699 34.7466 43.8125 34.4493V34.4231H47.813C48.2589 34.4231 48.6655 34.4887 49.0328 34.6198C49.4088 34.751 49.7323 34.9346 50.0034 35.1707C50.2832 35.4068 50.4974 35.6954 50.6461 36.0364C50.8035 36.3687 50.8822 36.7403 50.8822 37.1513C50.8822 37.6672 50.7947 38.1525 50.6199 38.6072C50.4537 39.0531 50.222 39.4423 49.9247 39.7745C49.6361 40.1068 49.2907 40.3691 48.8885 40.5615C48.495 40.7539 48.0709 40.8501 47.6162 40.8501C47.3452 40.8501 47.0741 40.7976 46.803 40.6927C46.5407 40.579 46.3046 40.4172 46.0947 40.2074C45.8936 39.9975 45.7362 39.7396 45.6226 39.4335C45.5089 39.1275 45.4695 38.7777 45.5045 38.3842C45.5307 38.1306 45.6182 38.0257 45.7668 38.0694C46.2303 38.2181 46.72 38.3317 47.2359 38.4104C47.7605 38.4891 48.2414 38.5066 48.6787 38.4629C49.1159 38.4192 49.4744 38.3055 49.7542 38.1219C50.0427 37.9383 50.187 37.6628 50.187 37.2956C50.187 36.9983 50.0427 36.7665 49.7542 36.6004C49.4744 36.4255 49.1115 36.3381 48.6655 36.3381C48.0972 36.3381 47.5813 36.3949 47.1178 36.5086C46.6631 36.6223 46.2696 36.784 45.9374 36.9939C45.6138 37.195 45.3602 37.4355 45.1766 37.7153C45.0017 37.9951 44.9143 38.3011 44.9143 38.6334C44.9143 39.3767 45.0979 40.1156 45.4652 40.8501C45.8324 41.5758 46.3964 42.3366 47.1572 43.1323C47.2359 43.2197 47.2752 43.3203 47.2752 43.434C47.284 43.5477 47.214 43.6045 47.0654 43.6045H43.8125V43.5783ZM56.6895 43.6832C56.4097 43.6832 56.1168 43.6001 55.8107 43.434C55.5047 43.2591 55.203 43.0361 54.9057 42.7651C54.6084 42.494 54.3286 42.1879 54.0663 41.8469C53.8039 41.4971 53.5722 41.1517 53.3711 40.8107C53.17 40.4697 53.0082 40.1418 52.8858 39.827C52.7721 39.5122 52.7153 39.2455 52.7153 39.0269C52.7153 38.8345 52.7503 38.6684 52.8202 38.5285C52.8989 38.3886 53.0213 38.2793 53.1875 38.2006C53.3624 38.1131 53.5897 38.0519 53.8695 38.017C54.1581 37.9732 54.5079 37.9514 54.9188 37.9514C55.6271 37.9514 56.1867 37.8727 56.5977 37.7153C57.0174 37.5579 57.2273 37.3349 57.2273 37.0464C57.2273 36.8452 57.1005 36.6791 56.8469 36.5479C56.5933 36.408 56.2785 36.3381 55.9025 36.3381C55.3342 36.3381 54.8183 36.3949 54.3548 36.5086C53.9001 36.6223 53.5066 36.784 53.1744 36.9939C52.8508 37.195 52.5972 37.4355 52.4136 37.7153C52.2387 37.9951 52.1513 38.3011 52.1513 38.6334C52.1513 39.3767 52.3349 40.1156 52.7022 40.8501C53.0694 41.5758 53.6334 42.3366 54.3942 43.1323C54.4729 43.2197 54.5122 43.3203 54.5122 43.434C54.521 43.5477 54.451 43.6045 54.3024 43.6045H51.0495V43.5783C51.2069 43.281 51.3206 42.9137 51.3905 42.4765C51.4692 42.0305 51.5086 41.4665 51.5086 40.7845V37.2431C51.5086 36.5611 51.4692 36.0014 51.3905 35.5642C51.3206 35.1183 51.2069 34.7466 51.0495 34.4493V34.4231H55.05C55.5309 34.4231 55.9681 34.4756 56.3616 34.5805C56.7551 34.6854 57.0874 34.8341 57.3585 35.0264C57.6383 35.2188 57.8525 35.4462 58.0012 35.7085C58.1498 35.9708 58.2241 36.2594 58.2241 36.5742C58.2241 36.8103 58.1892 37.0245 58.1192 37.2169C58.058 37.4005 57.9487 37.5666 57.7913 37.7153C57.6339 37.8639 57.4284 38.0038 57.1748 38.135C56.9212 38.2574 56.6065 38.3798 56.2305 38.5023C55.6533 38.7034 55.2161 38.9963 54.9188 39.3811C54.6215 39.7571 54.4729 40.1811 54.4729 40.6533C54.4729 41.0293 54.5734 41.3485 54.7745 41.6108C54.9844 41.8644 55.238 41.9912 55.5353 41.9912C55.7189 41.9912 55.8632 41.93 55.9681 41.8076C56.0731 41.6851 56.1255 41.5365 56.1255 41.3616C56.1255 41.178 56.0687 40.9856 55.955 40.7845C55.8413 40.5834 55.6533 40.4041 55.391 40.2467C55.2686 40.1593 55.2642 40.0587 55.3779 39.9451C55.4916 39.8401 55.6271 39.7308 55.7845 39.6171C55.9506 39.5035 56.1212 39.3942 56.296 39.2892C56.4797 39.1756 56.6589 39.075 56.8338 38.9876C57.0087 38.9001 57.1705 38.8302 57.3191 38.7777C57.3716 38.7602 57.4197 38.7515 57.4634 38.7515C57.5071 38.7427 57.5508 38.7602 57.5945 38.8039C57.9618 39.1537 58.2372 39.5559 58.4209 40.0106C58.6045 40.4566 58.6963 40.9419 58.6963 41.4665C58.6963 41.7813 58.6439 42.0743 58.5389 42.3453C58.434 42.6077 58.2897 42.8394 58.1061 43.0405C57.9312 43.2416 57.7213 43.399 57.4765 43.5127C57.2317 43.6264 56.9693 43.6832 56.6895 43.6832ZM62.9949 43.8144C62.4265 43.8144 61.8931 43.6963 61.3947 43.4602C60.905 43.2154 60.4722 42.8831 60.0962 42.4634C59.7289 42.0437 59.4316 41.5496 59.2043 40.9812C58.9769 40.4129 58.8501 39.8008 58.8239 39.145C58.7977 38.4542 58.8764 37.8115 59.06 37.2169C59.2524 36.6135 59.5191 36.0889 59.8601 35.6429C60.2098 35.197 60.6208 34.8472 61.093 34.5936C61.5739 34.34 62.0942 34.2132 62.6538 34.2132C63.2135 34.2132 63.7425 34.3357 64.2409 34.5805C64.7393 34.8166 65.1722 35.1445 65.5394 35.5642C65.9154 35.9839 66.2171 36.478 66.4445 37.0464C66.6718 37.6147 66.7986 38.2268 66.8248 38.8826C66.8511 39.5734 66.768 40.2205 66.5756 40.8238C66.392 41.4184 66.1253 41.9387 65.7755 42.3847C65.4345 42.8306 65.0235 43.1804 64.5426 43.434C64.0704 43.6876 63.5545 43.8144 62.9949 43.8144ZM61.316 39.3155C61.5171 40.732 61.7794 41.7507 62.103 42.3716C62.4352 42.9924 62.8681 43.2722 63.4015 43.211C63.9349 43.1411 64.2759 42.7519 64.4245 42.0437C64.5732 41.3266 64.5426 40.2161 64.3327 38.7121C64.1404 37.2956 63.878 36.2769 63.5458 35.656C63.2135 35.0264 62.7806 34.7466 62.2472 34.8166C61.7138 34.8778 61.3728 35.2669 61.2242 35.9839C61.0755 36.701 61.1061 37.8115 61.316 39.3155ZM68.7935 43.8144C68.4874 43.8144 68.177 43.7444 67.8622 43.6045C67.5562 43.4733 67.2895 43.2941 67.0621 43.0667C67.0009 43.0055 66.9703 42.9487 66.9703 42.8962C66.9703 42.835 66.9878 42.7694 67.0228 42.6995C67.1365 42.4197 67.2851 42.1311 67.4688 41.8338C67.6524 41.5277 67.8579 41.2436 68.0852 40.9812C68.2164 40.8238 68.3475 40.837 68.4787 41.0206C68.6536 41.2742 68.8853 41.484 69.1739 41.6502C69.4712 41.8163 69.7641 41.8994 70.0527 41.8994C70.28 41.8994 70.4024 41.8425 70.4199 41.7289C70.4461 41.6064 70.3587 41.5015 70.1576 41.4141C69.6242 41.1867 69.2569 40.92 69.0558 40.614C68.8634 40.3079 68.7673 39.9582 68.7673 39.5647V37.2431C68.7673 36.5611 68.7279 36.0014 68.6492 35.5642C68.5793 35.1183 68.4656 34.7466 68.3082 34.4493V34.4231H71.3643V34.4493C71.2069 34.7466 71.0888 35.1183 71.0101 35.5642C70.9402 36.0014 70.9052 36.5611 70.9052 37.2431V41.6633C70.9052 42.3716 70.7085 42.9093 70.315 43.2766C69.9302 43.6351 69.4231 43.8144 68.7935 43.8144ZM73.9562 43.6045C73.6501 43.6045 73.3747 43.5608 73.1299 43.4733C72.885 43.3859 72.6752 43.2678 72.5003 43.1192C72.3254 42.9618 72.1899 42.7782 72.0937 42.5683C71.9975 42.3497 71.9494 42.1136 71.9494 41.86C71.9494 41.2479 72.2292 40.7058 72.7888 40.2336C73.3485 39.7527 74.1966 39.3242 75.3334 38.9482C75.4121 38.922 75.4689 38.887 75.5039 38.8433C75.5389 38.7908 75.5476 38.7427 75.5301 38.699C75.5214 38.6553 75.482 38.6203 75.4121 38.5941C75.3509 38.5678 75.2634 38.5591 75.1498 38.5678C74.9137 38.5853 74.6033 38.6771 74.2185 38.8433C73.8425 39.0007 73.4446 39.1974 73.0249 39.4335C72.6839 39.6346 72.4391 39.6915 72.2904 39.604C72.1505 39.5078 72.0806 39.2761 72.0806 38.9089V37.2431C72.0806 36.5611 72.0412 36.0014 71.9625 35.5642C71.8926 35.1183 71.7789 34.7466 71.6215 34.4493V34.4231H77.9829V36.7184C77.9829 36.9283 77.878 36.9983 77.6681 36.9283C77.4407 36.8496 77.209 36.7753 76.9729 36.7053C76.7368 36.6354 76.5051 36.5742 76.2778 36.5217C76.0592 36.4605 75.8493 36.4168 75.6482 36.3905C75.4558 36.3556 75.294 36.3381 75.1629 36.3381C74.8831 36.3381 74.6557 36.4037 74.4808 36.5348C74.306 36.6572 74.2185 36.8277 74.2185 37.0464V37.4923C74.2185 37.7022 74.2666 37.8464 74.3628 37.9251C74.459 37.9951 74.577 38.0344 74.7169 38.0432C74.8656 38.0519 75.0273 38.0432 75.2022 38.017C75.3771 37.9907 75.5433 37.9776 75.7006 37.9776C75.9542 37.9776 76.1597 38.0344 76.3171 38.1481C76.4745 38.2618 76.5532 38.4148 76.5532 38.6072C76.5532 38.7821 76.492 38.9307 76.3696 39.0531C76.2472 39.1756 76.0373 39.3024 75.74 39.4335C75.1017 39.7046 74.6513 39.9276 74.389 40.1024C74.1354 40.2773 74.0086 40.4522 74.0086 40.6271C74.0086 40.7233 74.0436 40.8107 74.1136 40.8894C74.1923 40.9594 74.2928 41.025 74.4153 41.0862C74.5464 41.1386 74.6907 41.1824 74.8481 41.2173C75.0055 41.2436 75.1673 41.2567 75.3334 41.2567C75.7531 41.2567 76.1597 41.213 76.5532 41.1255C76.9467 41.0293 77.314 40.8938 77.655 40.7189C77.7686 40.6577 77.8517 40.6358 77.9042 40.6533C77.9566 40.6621 77.9829 40.7277 77.9829 40.8501V43.6045H73.9562ZM82.0227 43.8144C81.498 43.8144 81.004 43.6963 80.5406 43.4602C80.0771 43.2241 79.6705 42.905 79.3207 42.5027C78.971 42.0917 78.6868 41.6108 78.4682 41.0599C78.2583 40.5091 78.1403 39.9144 78.114 39.2761C78.0878 38.6028 78.1621 37.9689 78.337 37.3743C78.5119 36.7709 78.7611 36.2463 79.0846 35.8003C79.4082 35.3544 79.7929 35.0002 80.2389 34.7379C80.6848 34.4756 81.1658 34.3444 81.6817 34.3444C81.9702 34.3444 82.2326 34.3619 82.4686 34.3969C82.7135 34.4231 82.954 34.4493 83.19 34.4756C83.4261 34.5018 83.671 34.5105 83.9246 34.5018C84.1781 34.4931 84.4623 34.4493 84.7771 34.3706C84.9083 34.3444 85.0001 34.3925 85.0526 34.5149C85.1575 34.8297 85.2056 35.1226 85.1968 35.3937C85.1881 35.656 85.1313 35.8877 85.0263 36.0889C84.9214 36.2812 84.7684 36.4343 84.5673 36.5479C84.3661 36.6616 84.1213 36.7184 83.8327 36.7184C83.5267 36.7184 83.2294 36.6835 82.9408 36.6135C82.661 36.5436 82.39 36.4517 82.1276 36.3381C81.874 36.2244 81.6248 36.0976 81.38 35.9577C81.1439 35.8091 80.9166 35.6648 80.698 35.5249C80.5493 35.4287 80.4006 35.4199 80.252 35.4986C80.1033 35.5686 79.9678 35.6997 79.8454 35.8921C79.7317 36.0845 79.6355 36.325 79.5568 36.6135C79.4781 36.9021 79.4388 37.2125 79.4388 37.5448C79.4388 38.1481 79.5175 38.6859 79.6749 39.1581C79.841 39.6303 80.0684 40.0325 80.3569 40.3648C80.6542 40.6971 81.004 40.9506 81.4062 41.1255C81.8085 41.3004 82.25 41.3878 82.731 41.3878C83.5529 41.3878 84.2393 41.0949 84.7902 40.5091C84.8427 40.4478 84.9083 40.4391 84.987 40.4828C85.0657 40.5265 85.105 40.649 85.105 40.8501C85.105 41.2698 85.0263 41.6589 84.8689 42.0174C84.7115 42.3759 84.4929 42.6907 84.2131 42.9618C83.9333 43.2241 83.6054 43.434 83.2294 43.5914C82.8534 43.74 82.4512 43.8144 82.0227 43.8144ZM87.8797 43.5783C88.0371 43.281 88.1508 42.9137 88.2208 42.4765C88.2995 42.0305 88.3388 41.4665 88.3388 40.7845V35.4986C88.3388 35.35 88.3126 35.2538 88.2601 35.2101C88.2164 35.1664 88.1333 35.1532 88.0109 35.1707C87.871 35.197 87.7092 35.2844 87.5256 35.4331C87.342 35.5817 87.154 35.7741 86.9616 36.0102C86.7692 36.2463 86.5768 36.5173 86.3845 36.8234C86.2008 37.1207 86.0303 37.4398 85.8729 37.7809C85.8292 37.8858 85.7593 37.9208 85.6631 37.8858C85.5756 37.8421 85.5319 37.759 85.5319 37.6366V34.4231H93.2836V37.6366C93.2836 37.759 93.2355 37.8421 93.1394 37.8858C93.0519 37.9208 92.9863 37.8858 92.9426 37.7809C92.7852 37.4398 92.6103 37.1207 92.418 36.8234C92.2343 36.5173 92.0463 36.2463 91.854 36.0102C91.6616 35.7741 91.4736 35.5817 91.29 35.4331C91.1063 35.2844 90.9446 35.197 90.8047 35.1707C90.6822 35.1532 90.5948 35.1664 90.5423 35.2101C90.4986 35.2538 90.4768 35.35 90.4768 35.4986V40.7845C90.4768 41.4665 90.5117 42.0305 90.5817 42.4765C90.6604 42.9137 90.7784 43.281 90.9358 43.5783V43.6045H87.8797V43.5783Z" fill="#4338CA"/>
<defs>
<clipPath id="clip0_4831_5190">
<rect width="94" height="32.7907" fill="white"/>
</clipPath>
</defs>
</svg>
