<svg width="146" height="74" viewBox="0 0 146 74" fill="none" xmlns="http://www.w3.org/2000/svg">
<g clip-path="url(#clip0_4831_5898)">
<path d="M33.1048 49.7326C31.9165 49.7326 30.7281 49.393 29.7095 48.8837C28.5211 48.3744 27.5035 47.3558 26.6547 46.507C25.8058 45.6581 24.957 44.6395 24.2779 43.2814C23.5988 42.093 23.0895 40.7349 22.75 39.207H22.5802C20.2035 39.207 17.9965 38.6977 15.9593 37.8488C13.9221 36.8302 12.0547 35.6419 10.5268 33.9442C8.99885 32.2465 7.81048 30.2093 6.79187 28.0023C5.77327 25.7954 5.26397 23.0791 5.0942 20.3628C4.92443 17.6465 5.26397 15.1 6.1128 12.5535C6.96164 10.1767 7.98025 7.96977 9.50815 6.27209C11.0361 4.40465 12.7337 3.04651 14.6012 2.02791C16.4686 1.0093 18.6756 0.5 21.0523 0.5C23.4291 0.5 25.6361 1.0093 27.6733 2.02791C29.7105 3.04651 31.5779 4.40465 33.1058 6.10233C34.6337 7.8 35.9919 9.66744 36.8407 12.0442C37.6895 14.4209 38.3686 16.7977 38.3686 19.514C38.3686 21.8907 38.1988 24.0977 37.6895 26.1349C37.1802 28.1721 36.5012 29.8698 35.4826 31.5674C34.464 33.2651 33.4454 34.6233 32.0872 35.8116C30.7291 37 29.2012 37.8488 27.5035 38.5279C28.1826 38.8674 29.0314 39.207 29.7105 39.3767C30.3895 39.5465 31.2384 39.7163 31.9175 39.8861C32.7065 40.0558 33.6151 40.0558 34.464 40.0558C35.3128 40.0558 144.303 41.2442 145.492 41.2442C145.831 41.2442 146.001 41.414 146.171 41.5837C146.341 41.7535 146.341 41.9233 146.341 42.2628V47.5256C146.341 48.0349 146.171 48.5442 145.831 48.8837C145.492 49.2233 145.152 49.5628 144.643 49.9023C140.569 52.6186 36.5002 49.7326 35.6513 49.7326C34.8025 49.7326 33.6509 49.7326 33.1048 49.7326ZM15.45 21.0419C15.9593 24.4372 16.4686 27.3233 17.1477 29.5302C17.8268 31.7372 18.5058 33.4349 19.3547 34.793C19.864 35.6419 20.3733 35.9814 21.0523 35.8116C21.5616 35.6419 21.9012 35.1326 21.9012 33.9442C21.9012 33.2651 22.0709 32.7558 22.2407 32.7558C22.5802 32.7558 22.75 32.9256 23.0895 33.4349C23.9384 34.9628 24.6175 35.8116 25.2965 36.3209C25.9756 36.6605 26.4849 36.6605 26.9942 36.3209C27.5035 35.8116 27.843 35.1326 28.1826 33.9442C28.5221 32.7558 28.6919 31.3977 28.6919 29.8698C28.8616 28.3419 28.8616 26.4744 28.6919 24.607C28.6919 22.5698 28.5221 20.7023 28.1826 18.6651C27.843 15.7791 27.3337 13.2326 26.8244 11.1953C26.3151 9.15814 25.6361 7.46047 24.957 6.27209C24.2779 5.08372 23.4291 4.06512 22.5802 3.55581C21.7314 3.04651 20.7128 2.87674 19.6942 3.04651C18.6756 3.21628 17.657 3.72558 16.9779 4.40465C15.9593 5.08372 15.45 6.10233 15.1105 7.63023C14.7709 8.98837 14.6012 10.8558 14.6012 13.0628C14.7709 15.2698 14.9407 17.986 15.45 21.0419Z" fill="#4338CA"/>
<path d="M52.6848 41.2442C50.7857 41.2442 49.0593 40.8959 47.5055 40.3736C45.9517 39.6771 44.3979 38.8065 43.1894 37.5877C41.9809 36.3688 40.945 35.15 40.2544 33.5829C39.5638 32.0158 39.2185 30.4487 39.2185 28.7075C39.2185 27.1404 39.3912 25.7475 39.9091 24.3545C40.4271 22.9615 41.1176 21.5686 41.9809 20.3497C42.8441 18.9568 44.0526 17.7379 45.2611 16.5191C46.4696 15.3002 47.8508 14.0814 49.0593 13.0367C49.5772 12.6884 49.7499 12.1661 49.5772 11.992C49.4046 11.6437 49.0593 11.4696 48.3687 11.4696C47.3329 11.4696 46.1243 11.8178 44.7432 12.3402C43.362 12.8626 41.9809 13.3849 40.4271 13.9073C40.0818 14.0814 39.7365 14.0814 39.3912 13.9073C39.2185 13.7332 39.0459 13.3849 39.0459 13.0367V2.06708C39.0459 1.71884 39.2185 1.54472 39.5638 1.3706C39.9091 1.19648 40.4271 1.02236 40.945 0.848241C41.4629 0.67412 42.1535 0.67412 42.6714 0.67412C43.362 0.67412 43.88 0.5 44.3979 0.5C45.6064 0.5 46.8149 0.674121 47.8508 1.02236C48.8867 1.3706 49.9225 1.89296 50.6131 2.58945C51.4763 3.28593 51.9943 4.15653 52.5122 5.02713C53.0301 6.07185 53.2028 7.11658 53.2028 8.33542C53.2028 9.55426 53.0301 10.599 52.5122 11.4696C52.1669 12.3402 51.649 13.2108 50.9584 14.0814C50.4405 14.952 49.7499 15.6485 48.8867 16.5191C48.1961 17.2156 47.5055 18.0862 46.8149 18.9568C46.297 19.8274 45.779 20.698 45.2611 21.5686C44.9158 22.4392 44.5705 23.658 44.5705 24.7027C44.5705 26.7922 45.0885 28.3593 46.297 29.404C47.5055 30.4487 49.0593 31.1452 50.9584 31.1452C53.5481 31.1452 55.4472 30.1005 56.6557 28.1852C57.8642 26.0957 58.5548 23.1357 58.5548 19.4791V12.8626C58.5548 9.90251 58.3821 7.46482 58.0368 5.72361C57.6915 3.80829 57.3463 2.2412 56.6557 1.02236V0.848241H69.604V1.02236C69.4314 2.2412 68.9135 3.80829 68.5682 5.72361C68.2229 7.63894 68.0502 10.0766 68.0502 12.8626V23.1357C68.0502 25.5733 67.7049 28.011 66.8417 30.2746C66.1511 32.5382 64.9426 34.2794 63.5615 36.0206C62.1803 37.5877 60.4539 38.9806 58.7274 39.8512C56.8283 40.7218 54.9292 41.2442 52.6848 41.2442Z" fill="#4338CA"/>
<path d="M70.4541 40.6155C71.1332 39.2574 71.9818 37.3398 72.1516 35.4724C72.4911 33.605 72.6609 31.0584 72.6609 28.1724V12.8933C72.6609 10.0073 72.4911 7.63054 72.1516 5.59333C71.812 3.89566 71.3027 2.19798 70.7934 1.00961V0.839844H83.526V1.00961C82.6771 2.19798 82.1678 3.89566 81.9981 5.7631C81.6585 7.63054 81.4888 10.0073 81.4888 12.8933V28.1724C81.4888 31.0584 81.6585 33.605 81.9981 35.4724C82.3376 37.3398 82.8469 38.8678 83.526 40.2259L83.7594 40.6155H70.4541Z" fill="#4338CA"/>
<path d="M99.2205 41.2442C97.055 41.2442 95.056 40.7306 93.2237 39.7034C91.3913 38.6763 89.7255 37.3067 88.2263 35.5948C86.7271 33.8828 85.7276 31.8285 84.7282 29.4318C83.8953 27.0351 83.3956 24.4672 83.229 21.7281C83.0624 18.8178 83.3956 16.0787 84.0619 13.5107C84.7282 10.9428 85.7276 8.71731 87.0603 6.83418C88.3929 4.95105 89.8921 3.4103 91.7245 2.21194C93.5568 1.01358 95.5558 0.5 97.5547 0.5C98.7207 0.5 99.7202 0.5 100.72 0.671194C101.719 0.842388 102.719 0.842388 103.718 1.01358C104.718 1.18478 105.717 1.18478 106.716 1.18478C107.716 1.18478 108.882 1.01358 110.215 0.671194C110.714 0.5 111.048 0.842388 111.381 1.35597C111.88 2.72552 112.047 3.92388 112.047 5.12224C112.047 6.3206 111.714 7.17657 111.381 8.03254C110.881 8.88851 110.381 9.57328 109.548 9.91567C108.715 10.4293 107.716 10.6004 106.55 10.6004C105.384 10.6004 104.051 10.4293 102.885 10.0869C101.719 9.74448 100.72 9.40209 99.5536 8.88851C98.5542 8.37493 97.5547 7.86134 96.5552 7.17657C95.5558 6.49179 94.7229 5.97821 93.7234 5.29343C93.0571 4.95105 92.5574 4.77985 91.891 5.12224C91.2247 5.46463 90.725 5.97821 90.2253 6.83418C89.7255 7.69015 89.3924 8.71731 89.0592 9.91567C88.8926 11.6276 88.726 12.9972 88.726 14.3667C88.726 16.9346 89.0592 19.3313 89.7255 21.2145C90.3918 23.2688 91.3913 24.9808 92.5573 26.3503C93.7234 27.7199 95.2226 28.9182 96.8884 29.603C98.5542 30.2878 100.387 30.8013 102.219 30.8013C105.55 30.8013 108.382 29.603 110.548 27.0351C110.714 26.6927 111.048 26.6927 111.381 26.8639C111.714 27.0351 111.88 27.5487 111.88 28.4046C111.88 30.1166 111.547 31.8285 110.881 33.3693C110.215 34.91 109.382 36.2796 108.216 37.4779C107.05 38.6763 105.717 39.5322 104.218 40.217C102.552 40.9018 100.886 41.2442 99.2205 41.2442Z" fill="#4338CA"/>
<path d="M113.064 41.0747C113.744 39.7166 114.253 38.1887 114.423 36.1515C114.762 34.1143 114.932 31.7375 114.932 28.6817V13.0631C114.932 10.0073 114.762 7.63054 114.423 5.59333C114.253 3.89566 113.744 2.19798 113.064 1.00961V0.839844H125.797C127.325 0.839844 128.174 2.02822 128.174 4.23519C128.174 5.59333 127.834 6.7817 127.325 7.97008C126.816 8.98868 126.137 10.0073 125.288 11.0259C124.439 11.8747 123.76 12.8933 122.741 13.5724C121.892 14.4212 121.044 15.2701 120.195 15.9491C119.346 16.798 118.837 17.4771 118.327 18.4957C117.818 19.3445 117.478 20.1933 117.478 21.2119C117.478 22.0608 117.818 22.7398 118.327 23.2491C118.837 23.7584 119.516 24.098 120.195 24.098C121.553 24.098 122.741 23.4189 124.099 22.0608C125.457 20.7026 126.476 19.005 127.495 16.9678C128.513 14.9305 129.362 12.5538 130.041 9.83752C130.72 7.29101 131.06 4.7445 131.06 2.19798C131.06 1.34915 131.399 0.839844 132.078 0.839844H141.585C142.095 0.839844 142.434 1.00961 142.604 1.34915C142.944 1.68868 142.774 2.36775 142.264 3.38636C140.737 6.61194 138.699 9.83752 136.153 12.7236C133.776 15.7794 130.89 18.6654 127.834 21.5515C127.155 22.2305 126.816 22.7398 126.985 23.0794C127.155 23.4189 127.664 23.4189 128.513 23.0794L131.23 22.0608C132.248 21.7212 133.267 21.5515 134.116 21.891C135.134 22.2305 135.813 22.9096 136.323 23.9282L139.378 30.0398C141.076 33.4352 142.434 36.1515 143.453 37.8491C144.471 39.5468 145.151 40.7352 145.66 41.2445H135.983C134.625 41.2445 133.437 40.905 132.418 40.2259C131.569 39.5468 130.72 38.3584 129.871 37.0003C129.192 35.8119 128.683 34.6236 128.004 33.2654C127.325 32.077 126.646 30.8887 125.967 29.8701C125.288 28.8515 124.609 28.0026 123.93 27.3236C123.251 26.6445 122.741 26.305 122.062 26.305C121.553 26.305 121.213 26.6445 120.874 27.3236C120.534 28.0026 120.364 28.8515 120.364 29.7003C120.364 31.0584 120.874 32.4166 121.892 33.605C122.911 34.9631 124.439 36.491 126.646 38.5282C127.495 39.3771 127.834 39.8864 127.664 40.5654C127.495 41.0747 127.155 41.4143 126.306 41.4143L113.064 41.0747Z" fill="#4338CA"/>
</g>
<path d="M68.0498 67.9944C68.2943 67.5326 68.4709 66.9622 68.5795 66.2832C68.7017 65.5905 68.7629 64.7145 68.7629 63.6552V58.1547C68.7629 57.0953 68.7017 56.2261 68.5795 55.5471C68.4709 54.8544 68.2943 54.2772 68.0498 53.8154V53.7747H74.2633C74.956 53.7747 75.5875 53.8766 76.1579 54.0803C76.7419 54.284 77.2444 54.5692 77.6655 54.9359C78.1001 55.3026 78.4328 55.7508 78.6637 56.2805C78.9082 56.7966 79.0304 57.3738 79.0304 58.0121C79.0304 58.8134 78.8946 59.5672 78.6229 60.2734C78.3649 60.966 78.005 61.5704 77.5432 62.0865C77.095 62.6026 76.5586 63.01 75.9338 63.3088C75.3227 63.6076 74.664 63.757 73.9577 63.757C73.5367 63.757 73.1157 63.6755 72.6947 63.5126C72.2872 63.336 71.9205 63.0847 71.5946 62.7588C71.2822 62.4328 71.0377 62.0322 70.8612 61.5568C70.6846 61.0815 70.6235 60.5382 70.6778 59.9271C70.7186 59.5332 70.8544 59.3702 71.0853 59.4381C71.8051 59.669 72.5656 59.8456 73.3669 59.9678C74.1818 60.09 74.9288 60.1172 75.6079 60.0493C76.2869 59.9814 76.8438 59.8048 77.2784 59.5196C77.7266 59.2344 77.9507 58.8066 77.9507 58.2362C77.9507 57.7744 77.7266 57.4145 77.2784 57.1565C76.8438 56.8848 76.2802 56.749 75.5875 56.749C74.7047 56.749 73.9034 56.8373 73.1836 57.0139C72.4774 57.1904 71.8662 57.4417 71.3501 57.7676C70.8476 58.08 70.4537 58.4535 70.1685 58.8881C69.8969 59.3227 69.7611 59.798 69.7611 60.3141C69.7611 61.4686 70.0463 62.6162 70.6167 63.757C71.1871 64.8843 72.0631 66.0659 73.2447 67.3018C73.3669 67.4376 73.4281 67.5938 73.4281 67.7703C73.4416 67.9469 73.333 68.0352 73.1021 68.0352H68.0498V67.9944ZM88.0503 68.1574C87.6157 68.1574 87.1607 68.0284 86.6854 67.7703C86.21 67.4987 85.7415 67.1524 85.2797 66.7313C84.8179 66.3103 84.3833 65.835 83.9759 65.3053C83.5684 64.762 83.2085 64.2256 82.8962 63.6959C82.5838 63.1662 82.3325 62.6569 82.1424 62.168C81.9658 61.6791 81.8775 61.2648 81.8775 60.9253C81.8775 60.6265 81.9319 60.3685 82.0405 60.1512C82.1628 59.9339 82.3529 59.7641 82.6109 59.6419C82.8826 59.506 83.2357 59.411 83.6703 59.3566C84.1185 59.2887 84.6617 59.2548 85.3001 59.2548C86.4002 59.2548 87.2694 59.1326 87.9077 58.8881C88.5596 58.6436 88.8855 58.2973 88.8855 57.8491C88.8855 57.5367 88.6886 57.2787 88.2948 57.075C87.9009 56.8577 87.412 56.749 86.828 56.749C85.9452 56.749 85.1439 56.8373 84.4241 57.0139C83.7178 57.1904 83.1067 57.4417 82.5906 57.7676C82.0881 58.08 81.6942 58.4535 81.409 58.8881C81.1374 59.3227 81.0015 59.798 81.0015 60.3141C81.0015 61.4686 81.2868 62.6162 81.8572 63.757C82.4276 64.8843 83.3036 66.0659 84.4852 67.3018C84.6074 67.4376 84.6685 67.5938 84.6685 67.7703C84.6821 67.9469 84.5735 68.0352 84.3426 68.0352H79.2903V67.9944C79.5348 67.5326 79.7113 66.9622 79.82 66.2832C79.9422 65.5905 80.0033 64.7145 80.0033 63.6552V58.1547C80.0033 57.0953 79.9422 56.2261 79.82 55.5471C79.7113 54.8544 79.5348 54.2772 79.2903 53.8154V53.7747H85.5038C86.2508 53.7747 86.9298 53.8562 87.541 54.0192C88.1522 54.1821 88.6682 54.413 89.0893 54.7118C89.5239 55.0106 89.8566 55.3637 90.0875 55.7712C90.3184 56.1786 90.4338 56.6268 90.4338 57.1157C90.4338 57.4824 90.3795 57.8152 90.2709 58.1139C90.1758 58.3992 90.006 58.6572 89.7615 58.8881C89.5171 59.119 89.1979 59.3363 88.8041 59.54C88.4102 59.7301 87.9213 59.9203 87.3373 60.1104C86.4409 60.4228 85.7618 60.8778 85.3001 61.4753C84.8383 62.0593 84.6074 62.718 84.6074 63.4514C84.6074 64.0354 84.7636 64.5312 85.076 64.9386C85.4019 65.3325 85.7958 65.5294 86.2575 65.5294C86.5428 65.5294 86.7669 65.4343 86.9298 65.2442C87.0928 65.054 87.1743 64.8232 87.1743 64.5515C87.1743 64.2663 87.086 63.9675 86.9095 63.6552C86.7329 63.3428 86.4409 63.0644 86.0335 62.8199C85.8433 62.6841 85.8365 62.5279 86.0131 62.3513C86.1896 62.1884 86.4002 62.0186 86.6446 61.842C86.9027 61.6655 87.1675 61.4957 87.4391 61.3327C87.7243 61.1562 88.0028 61 88.2744 60.8642C88.546 60.7284 88.7973 60.6197 89.0282 60.5382C89.1096 60.5111 89.1843 60.4975 89.2522 60.4975C89.3202 60.4839 89.3881 60.5111 89.456 60.579C90.0264 61.1222 90.4542 61.747 90.7394 62.4532C91.0246 63.1459 91.1672 63.8996 91.1672 64.7145C91.1672 65.2034 91.0857 65.6584 90.9228 66.0794C90.7598 66.4869 90.5357 66.8468 90.2505 67.1592C89.9789 67.4715 89.6529 67.716 89.2726 67.8926C88.8923 68.0691 88.4849 68.1574 88.0503 68.1574ZM97.8437 68.3611C96.9609 68.3611 96.1324 68.1778 95.3583 67.8111C94.5977 67.4308 93.9255 66.9147 93.3415 66.2628C92.771 65.6109 92.3093 64.8435 91.9562 63.9607C91.603 63.0779 91.4061 62.1272 91.3654 61.1086C91.3246 60.0357 91.4469 59.0375 91.7321 58.1139C92.0309 57.1768 92.4451 56.3619 92.9748 55.6693C93.518 54.9766 94.1563 54.4334 94.8897 54.0395C95.6367 53.6457 96.4448 53.4487 97.314 53.4487C98.1832 53.4487 99.0049 53.6389 99.779 54.0192C100.553 54.3859 101.225 54.8952 101.796 55.5471C102.38 56.199 102.848 56.9663 103.202 57.8491C103.555 58.7319 103.752 59.6826 103.792 60.7012C103.833 61.7741 103.704 62.7792 103.405 63.7163C103.12 64.6398 102.706 65.4479 102.163 66.1406C101.633 66.8332 100.995 67.3765 100.248 67.7703C99.5142 68.1642 98.7129 68.3611 97.8437 68.3611ZM95.2361 61.3735C95.5484 63.5737 95.9559 65.1559 96.4584 66.1202C96.9745 67.0845 97.6468 67.5191 98.4752 67.424C99.3037 67.3153 99.8334 66.711 100.064 65.6109C100.295 64.4972 100.248 62.7724 99.9217 60.4364C99.6229 58.2362 99.2154 56.6539 98.6993 55.6897C98.1832 54.7118 97.511 54.2772 96.6825 54.3859C95.854 54.4809 95.3243 55.0853 95.0935 56.199C94.8626 57.3126 94.9101 59.0375 95.2361 61.3735ZM106.85 68.3611C106.375 68.3611 105.893 68.2525 105.404 68.0352C104.928 67.8314 104.514 67.553 104.161 67.1999C104.066 67.1048 104.018 67.0166 104.018 66.9351C104.018 66.84 104.046 66.7381 104.1 66.6295C104.276 66.1949 104.507 65.7467 104.792 65.2849C105.078 64.8096 105.397 64.3682 105.75 63.9607C105.954 63.7163 106.157 63.7366 106.361 64.0219C106.633 64.4157 106.993 64.7417 107.441 64.9997C107.903 65.2578 108.358 65.3868 108.806 65.3868C109.159 65.3868 109.349 65.2985 109.376 65.1219C109.417 64.9318 109.281 64.7688 108.969 64.633C108.14 64.2799 107.57 63.8657 107.258 63.3903C106.959 62.915 106.809 62.3717 106.809 61.7606V58.1547C106.809 57.0953 106.748 56.2261 106.626 55.5471C106.517 54.8544 106.341 54.2772 106.096 53.8154V53.7747H110.843V53.8154C110.599 54.2772 110.415 54.8544 110.293 55.5471C110.184 56.2261 110.13 57.0953 110.13 58.1547V65.0201C110.13 66.1202 109.824 66.9554 109.213 67.5259C108.616 68.0827 107.828 68.3611 106.85 68.3611ZM114.869 68.0352C114.393 68.0352 113.966 67.9672 113.585 67.8314C113.205 67.6956 112.879 67.5123 112.607 67.2814C112.336 67.0369 112.125 66.7517 111.976 66.4258C111.826 66.0862 111.752 65.7195 111.752 65.3257C111.752 64.375 112.186 63.5329 113.056 62.7995C113.925 62.0526 115.242 61.3871 117.008 60.8031C117.13 60.7623 117.218 60.708 117.273 60.6401C117.327 60.5586 117.341 60.4839 117.313 60.416C117.3 60.3481 117.239 60.2938 117.13 60.253C117.035 60.2123 116.899 60.1987 116.723 60.2123C116.356 60.2394 115.874 60.382 115.276 60.6401C114.692 60.8846 114.074 61.1901 113.422 61.5568C112.893 61.8692 112.512 61.9575 112.281 61.8217C112.064 61.6723 111.956 61.3124 111.956 60.7419V58.1547C111.956 57.0953 111.894 56.2261 111.772 55.5471C111.664 54.8544 111.487 54.2772 111.242 53.8154V53.7747H121.123V57.3398C121.123 57.6658 120.96 57.7744 120.634 57.6658C120.281 57.5435 119.921 57.4281 119.554 57.3194C119.188 57.2108 118.828 57.1157 118.475 57.0342C118.135 56.9392 117.809 56.8712 117.497 56.8305C117.198 56.7762 116.947 56.749 116.743 56.749C116.308 56.749 115.955 56.8509 115.684 57.0546C115.412 57.2447 115.276 57.5096 115.276 57.8491V58.5418C115.276 58.8677 115.351 59.0918 115.5 59.214C115.65 59.3227 115.833 59.3838 116.05 59.3974C116.281 59.411 116.532 59.3974 116.804 59.3566C117.076 59.3159 117.334 59.2955 117.578 59.2955C117.972 59.2955 118.291 59.3838 118.536 59.5604C118.78 59.7369 118.902 59.9746 118.902 60.2734C118.902 60.545 118.807 60.7759 118.617 60.966C118.427 61.1562 118.101 61.3531 117.639 61.5568C116.648 61.9779 115.948 62.3242 115.541 62.5958C115.147 62.8674 114.95 63.1391 114.95 63.4107C114.95 63.5601 115.005 63.6959 115.113 63.8181C115.235 63.9268 115.392 64.0286 115.582 64.1237C115.785 64.2052 116.01 64.2731 116.254 64.3274C116.498 64.3682 116.75 64.3886 117.008 64.3886C117.66 64.3886 118.291 64.3206 118.902 64.1848C119.514 64.0354 120.084 63.8249 120.614 63.5533C120.79 63.4582 120.919 63.4243 121.001 63.4514C121.082 63.465 121.123 63.5669 121.123 63.757V68.0352H114.869ZM127.398 68.3611C126.583 68.3611 125.815 68.1778 125.096 67.8111C124.376 67.4444 123.744 66.9486 123.201 66.3239C122.658 65.6856 122.216 64.9386 121.877 64.083C121.551 63.2273 121.367 62.3038 121.327 61.3124C121.286 60.2666 121.401 59.2819 121.673 58.3584C121.945 57.4213 122.332 56.6064 122.834 55.9138C123.337 55.2211 123.934 54.6711 124.627 54.2636C125.32 53.8562 126.067 53.6525 126.868 53.6525C127.316 53.6525 127.724 53.6796 128.09 53.7339C128.47 53.7747 128.844 53.8154 129.211 53.8562C129.577 53.8969 129.958 53.9105 130.352 53.8969C130.745 53.8833 131.187 53.8154 131.676 53.6932C131.879 53.6525 132.022 53.7272 132.104 53.9173C132.266 54.4062 132.341 54.8612 132.328 55.2822C132.314 55.6897 132.226 56.0496 132.063 56.3619C131.9 56.6607 131.662 56.8984 131.35 57.075C131.037 57.2515 130.657 57.3398 130.209 57.3398C129.734 57.3398 129.272 57.2855 128.824 57.1768C128.389 57.0682 127.968 56.9256 127.561 56.749C127.167 56.5725 126.78 56.3755 126.399 56.1582C126.033 55.9273 125.68 55.7032 125.34 55.4859C125.109 55.3366 124.878 55.323 124.647 55.4452C124.416 55.5539 124.206 55.7576 124.016 56.0564C123.839 56.3552 123.69 56.7286 123.568 57.1768C123.445 57.625 123.384 58.1072 123.384 58.6232C123.384 59.5604 123.506 60.3956 123.751 61.129C124.009 61.8624 124.362 62.4872 124.81 63.0032C125.272 63.5193 125.815 63.9132 126.44 64.1848C127.065 64.4565 127.751 64.5923 128.498 64.5923C129.774 64.5923 130.84 64.1373 131.696 63.2273C131.778 63.1323 131.879 63.1187 132.002 63.1866C132.124 63.2545 132.185 63.4446 132.185 63.757C132.185 64.4089 132.063 65.0133 131.818 65.5701C131.574 66.127 131.234 66.6159 130.8 67.0369C130.365 67.4444 129.856 67.7703 129.272 68.0148C128.688 68.2457 128.063 68.3611 127.398 68.3611ZM136.495 67.9944C136.739 67.5326 136.916 66.9622 137.024 66.2832C137.147 65.5905 137.208 64.7145 137.208 63.6552V55.4452C137.208 55.2143 137.167 55.0649 137.085 54.997C137.018 54.9291 136.889 54.9087 136.698 54.9359C136.481 54.9766 136.23 55.1125 135.945 55.3433C135.659 55.5742 135.367 55.873 135.069 56.2397C134.77 56.6064 134.471 57.0274 134.172 57.5028C133.887 57.9646 133.622 58.4603 133.378 58.9899C133.31 59.1529 133.201 59.2072 133.052 59.1529C132.916 59.085 132.848 58.956 132.848 58.7659V53.7747H144.888V58.7659C144.888 58.956 144.813 59.085 144.664 59.1529C144.528 59.2072 144.426 59.1529 144.358 58.9899C144.114 58.4603 143.842 57.9646 143.543 57.5028C143.258 57.0274 142.966 56.6064 142.667 56.2397C142.369 55.873 142.077 55.5742 141.791 55.3433C141.506 55.1125 141.255 54.9766 141.038 54.9359C140.847 54.9087 140.712 54.9291 140.63 54.997C140.562 55.0649 140.528 55.2143 140.528 55.4452V63.6552C140.528 64.7145 140.583 65.5905 140.691 66.2832C140.814 66.9622 140.997 67.5326 141.241 67.9944V68.0352H136.495V67.9944Z" fill="#4338CA"/>
<defs>
<clipPath id="clip0_4831_5898">
<rect width="146" height="50.9302" fill="white" transform="translate(0 0.5)"/>
</clipPath>
</defs>
</svg>
